# xmcd
#
# Track frame offsets:
#	150
#	16323
#	34383
#	49506
#	67343
#	82892
#	97967
#	112126
#	131245
#	148558
#	165742
#	179536
#	192513
#	206902
#	222884
#
# Disc length: 3269 seconds
# Revision: 0
# Processed by: cddbd v1.5.2PL0 Copyright (c) Steve Scherf et al.
# Submitted via: dBpowerAMP V12.0
#
DISCID=e60cc30f
DTITLE=Rita Wilson - Rita Wilson
DYEAR=2016
DGENRE=Country
TTITLE0=Along For The Ride 
TTITLE1=Crying, Crying 
TTITLE2=Talking To Me
TTITLE3=Forgiving Me Forgiving You
TTITLE4=Say Yes
TTITLE5=Strong Tonight
TTITLE6=What You See Is What You Get
TTITLE7=Joni 
TTITLE8=In the Dark
TTITLE9=Stay Low 
TTITLE10=Every Day 
TTITLE11=Girls Night In
TTITLE12=I'm Guilty
TTITLE13=Still Gone
TTITLE14=Grateful
EXTD=
EXTT0=
EXTT1=
EXTT2=
EXTT3=
EXTT4=
EXTT5=
EXTT6=
EXTT7=
EXTT8=
EXTT9=
EXTT10=
EXTT11=
EXTT12=
EXTT13=
EXTT14=
PLAYORDER=
